<mxfile host="app.diagrams.net" agent="Mozilla/5.0 (Windows NT 10.0; Win64; x64) AppleWebKit/537.36 (KHTML, like Gecko) Chrome/139.0.0.0 Safari/537.36" version="28.0.9">
  <diagram name="Page-1" id="12MXKBLP5QR4ohq9W4Va">
    <mxGraphModel dx="1042" dy="527" grid="1" gridSize="10" guides="1" tooltips="1" connect="1" arrows="1" fold="1" page="1" pageScale="1" pageWidth="850" pageHeight="1100" math="0" shadow="0">
      <root>
        <mxCell id="0" />
        <mxCell id="1" parent="0" />
        <mxCell id="i3o8uEPjrx67sbyNPqHy-1" style="edgeStyle=orthogonalEdgeStyle;rounded=0;orthogonalLoop=1;jettySize=auto;html=1;entryX=0.5;entryY=0;entryDx=0;entryDy=0;" edge="1" parent="1" source="i3o8uEPjrx67sbyNPqHy-2" target="i3o8uEPjrx67sbyNPqHy-10">
          <mxGeometry relative="1" as="geometry" />
        </mxCell>
        <mxCell id="i3o8uEPjrx67sbyNPqHy-2" value="Start" style="ellipse;whiteSpace=wrap;html=1;" vertex="1" parent="1">
          <mxGeometry x="440.0100000000002" y="170" width="99.99" height="60" as="geometry" />
        </mxCell>
        <mxCell id="i3o8uEPjrx67sbyNPqHy-3" value="Check Food Bin Sensor" style="rounded=0;whiteSpace=wrap;html=1;" vertex="1" parent="1">
          <mxGeometry x="430" y="540" width="120" height="60" as="geometry" />
        </mxCell>
        <mxCell id="i3o8uEPjrx67sbyNPqHy-4" style="edgeStyle=orthogonalEdgeStyle;rounded=0;orthogonalLoop=1;jettySize=auto;html=1;entryX=1;entryY=0.5;entryDx=0;entryDy=0;" edge="1" parent="1" source="i3o8uEPjrx67sbyNPqHy-6" target="i3o8uEPjrx67sbyNPqHy-10">
          <mxGeometry relative="1" as="geometry">
            <Array as="points">
              <mxPoint x="680" y="435" />
              <mxPoint x="680" y="320" />
            </Array>
          </mxGeometry>
        </mxCell>
        <mxCell id="i3o8uEPjrx67sbyNPqHy-5" style="edgeStyle=orthogonalEdgeStyle;rounded=0;orthogonalLoop=1;jettySize=auto;html=1;entryX=0.5;entryY=0;entryDx=0;entryDy=0;" edge="1" parent="1" source="i3o8uEPjrx67sbyNPqHy-6" target="i3o8uEPjrx67sbyNPqHy-3">
          <mxGeometry relative="1" as="geometry" />
        </mxCell>
        <mxCell id="i3o8uEPjrx67sbyNPqHy-6" value="Scheduled Time OR Button Pressed?" style="rhombus;whiteSpace=wrap;html=1;" vertex="1" parent="1">
          <mxGeometry x="400.6300000000001" y="380" width="178.75" height="110" as="geometry" />
        </mxCell>
        <mxCell id="i3o8uEPjrx67sbyNPqHy-7" value="No" style="text;html=1;align=center;verticalAlign=middle;whiteSpace=wrap;rounded=0;" vertex="1" parent="1">
          <mxGeometry x="576.8800000000001" y="400" width="60" height="30" as="geometry" />
        </mxCell>
        <mxCell id="i3o8uEPjrx67sbyNPqHy-8" value="Yes" style="text;html=1;align=center;verticalAlign=middle;whiteSpace=wrap;rounded=0;" vertex="1" parent="1">
          <mxGeometry x="497.5" y="500" width="60" height="30" as="geometry" />
        </mxCell>
        <mxCell id="i3o8uEPjrx67sbyNPqHy-9" style="edgeStyle=orthogonalEdgeStyle;rounded=0;orthogonalLoop=1;jettySize=auto;html=1;" edge="1" parent="1" source="i3o8uEPjrx67sbyNPqHy-10" target="i3o8uEPjrx67sbyNPqHy-6">
          <mxGeometry relative="1" as="geometry" />
        </mxCell>
        <mxCell id="i3o8uEPjrx67sbyNPqHy-10" value="Read Time and Manual Override Button" style="rounded=0;whiteSpace=wrap;html=1;" vertex="1" parent="1">
          <mxGeometry x="430" y="290" width="120" height="60" as="geometry" />
        </mxCell>
        <mxCell id="i3o8uEPjrx67sbyNPqHy-11" value="Food Available?" style="rhombus;whiteSpace=wrap;html=1;" vertex="1" parent="1">
          <mxGeometry x="400.6300000000001" y="650" width="178.75" height="110" as="geometry" />
        </mxCell>
        <mxCell id="i3o8uEPjrx67sbyNPqHy-12" style="edgeStyle=orthogonalEdgeStyle;rounded=0;orthogonalLoop=1;jettySize=auto;html=1;entryX=0.5;entryY=0;entryDx=0;entryDy=0;" edge="1" parent="1">
          <mxGeometry relative="1" as="geometry">
            <mxPoint x="489.5100000000002" y="600" as="sourcePoint" />
            <mxPoint x="489.5100000000002" y="650" as="targetPoint" />
          </mxGeometry>
        </mxCell>
        <mxCell id="i3o8uEPjrx67sbyNPqHy-13" style="edgeStyle=orthogonalEdgeStyle;rounded=0;orthogonalLoop=1;jettySize=auto;html=1;entryX=0.5;entryY=0;entryDx=0;entryDy=0;" edge="1" parent="1">
          <mxGeometry relative="1" as="geometry">
            <mxPoint x="489.5" y="760" as="sourcePoint" />
            <mxPoint x="489.5" y="810" as="targetPoint" />
          </mxGeometry>
        </mxCell>
        <mxCell id="i3o8uEPjrx67sbyNPqHy-14" value="Yes" style="text;html=1;align=center;verticalAlign=middle;whiteSpace=wrap;rounded=0;" vertex="1" parent="1">
          <mxGeometry x="490" y="760" width="60" height="30" as="geometry" />
        </mxCell>
        <mxCell id="i3o8uEPjrx67sbyNPqHy-15" style="edgeStyle=orthogonalEdgeStyle;rounded=0;orthogonalLoop=1;jettySize=auto;html=1;exitX=1;exitY=0.5;exitDx=0;exitDy=0;" edge="1" parent="1" source="i3o8uEPjrx67sbyNPqHy-11">
          <mxGeometry relative="1" as="geometry">
            <mxPoint x="630" y="710" as="sourcePoint" />
            <mxPoint x="660" y="705" as="targetPoint" />
          </mxGeometry>
        </mxCell>
        <mxCell id="i3o8uEPjrx67sbyNPqHy-16" style="edgeStyle=orthogonalEdgeStyle;rounded=0;orthogonalLoop=1;jettySize=auto;html=1;entryX=1;entryY=0.5;entryDx=0;entryDy=0;" edge="1" parent="1" source="i3o8uEPjrx67sbyNPqHy-17" target="i3o8uEPjrx67sbyNPqHy-10">
          <mxGeometry relative="1" as="geometry">
            <Array as="points">
              <mxPoint x="720" y="320" />
            </Array>
          </mxGeometry>
        </mxCell>
        <mxCell id="i3o8uEPjrx67sbyNPqHy-17" value="Send &quot;Low Food Alert&quot; AND Log Event" style="rounded=0;whiteSpace=wrap;html=1;" vertex="1" parent="1">
          <mxGeometry x="660" y="675" width="120" height="60" as="geometry" />
        </mxCell>
        <mxCell id="i3o8uEPjrx67sbyNPqHy-18" value="Check Bowl Weight" style="rounded=0;whiteSpace=wrap;html=1;" vertex="1" parent="1">
          <mxGeometry x="430" y="810" width="120" height="60" as="geometry" />
        </mxCell>
        <mxCell id="i3o8uEPjrx67sbyNPqHy-19" value="Bowl Weight &amp;lt; =Target Weight?" style="rhombus;whiteSpace=wrap;html=1;" vertex="1" parent="1">
          <mxGeometry x="400.6300000000001" y="920" width="178.75" height="110" as="geometry" />
        </mxCell>
        <mxCell id="i3o8uEPjrx67sbyNPqHy-20" style="edgeStyle=orthogonalEdgeStyle;rounded=0;orthogonalLoop=1;jettySize=auto;html=1;entryX=0.5;entryY=0;entryDx=0;entryDy=0;" edge="1" parent="1">
          <mxGeometry relative="1" as="geometry">
            <mxPoint x="489" y="870" as="sourcePoint" />
            <mxPoint x="489" y="920" as="targetPoint" />
          </mxGeometry>
        </mxCell>
        <mxCell id="i3o8uEPjrx67sbyNPqHy-21" style="edgeStyle=orthogonalEdgeStyle;rounded=0;orthogonalLoop=1;jettySize=auto;html=1;entryX=0.5;entryY=0;entryDx=0;entryDy=0;" edge="1" parent="1">
          <mxGeometry relative="1" as="geometry">
            <mxPoint x="489.5" y="1030" as="sourcePoint" />
            <mxPoint x="489.5" y="1080" as="targetPoint" />
          </mxGeometry>
        </mxCell>
        <mxCell id="i3o8uEPjrx67sbyNPqHy-22" value="Yes" style="text;html=1;align=center;verticalAlign=middle;whiteSpace=wrap;rounded=0;" vertex="1" parent="1">
          <mxGeometry x="490" y="1030" width="60" height="30" as="geometry" />
        </mxCell>
        <mxCell id="i3o8uEPjrx67sbyNPqHy-23" value="No" style="text;html=1;align=center;verticalAlign=middle;whiteSpace=wrap;rounded=0;" vertex="1" parent="1">
          <mxGeometry x="579.3800000000001" y="670" width="60" height="30" as="geometry" />
        </mxCell>
        <mxCell id="i3o8uEPjrx67sbyNPqHy-24" style="edgeStyle=orthogonalEdgeStyle;rounded=0;orthogonalLoop=1;jettySize=auto;html=1;exitX=1;exitY=0.5;exitDx=0;exitDy=0;" edge="1" parent="1">
          <mxGeometry relative="1" as="geometry">
            <mxPoint x="579.3800000000001" y="975" as="sourcePoint" />
            <mxPoint x="660.3800000000001" y="975" as="targetPoint" />
          </mxGeometry>
        </mxCell>
        <mxCell id="i3o8uEPjrx67sbyNPqHy-25" value="No" style="text;html=1;align=center;verticalAlign=middle;whiteSpace=wrap;rounded=0;" vertex="1" parent="1">
          <mxGeometry x="579.7600000000002" y="940" width="60" height="30" as="geometry" />
        </mxCell>
        <mxCell id="i3o8uEPjrx67sbyNPqHy-26" style="edgeStyle=orthogonalEdgeStyle;rounded=0;orthogonalLoop=1;jettySize=auto;html=1;entryX=1;entryY=0.5;entryDx=0;entryDy=0;" edge="1" parent="1" source="i3o8uEPjrx67sbyNPqHy-27" target="i3o8uEPjrx67sbyNPqHy-10">
          <mxGeometry relative="1" as="geometry">
            <Array as="points">
              <mxPoint x="800" y="975" />
              <mxPoint x="800" y="320" />
            </Array>
          </mxGeometry>
        </mxCell>
        <mxCell id="i3o8uEPjrx67sbyNPqHy-27" value="Skip Feed AND Log Event" style="rounded=0;whiteSpace=wrap;html=1;" vertex="1" parent="1">
          <mxGeometry x="660" y="945" width="120" height="60" as="geometry" />
        </mxCell>
        <mxCell id="i3o8uEPjrx67sbyNPqHy-28" value="Run Motor (Dispense)" style="rounded=0;whiteSpace=wrap;html=1;" vertex="1" parent="1">
          <mxGeometry x="430.0100000000002" y="1080" width="120" height="60" as="geometry" />
        </mxCell>
        <mxCell id="i3o8uEPjrx67sbyNPqHy-29" value="Motor Feedback OK?" style="rhombus;whiteSpace=wrap;html=1;" vertex="1" parent="1">
          <mxGeometry x="400.6300000000001" y="1192.5" width="178.75" height="110" as="geometry" />
        </mxCell>
        <mxCell id="i3o8uEPjrx67sbyNPqHy-30" style="edgeStyle=orthogonalEdgeStyle;rounded=0;orthogonalLoop=1;jettySize=auto;html=1;entryX=0.5;entryY=0;entryDx=0;entryDy=0;" edge="1" parent="1" target="i3o8uEPjrx67sbyNPqHy-29">
          <mxGeometry relative="1" as="geometry">
            <mxPoint x="489.3800000000001" y="1140" as="sourcePoint" />
            <mxPoint x="489.3800000000001" y="1190" as="targetPoint" />
          </mxGeometry>
        </mxCell>
        <mxCell id="i3o8uEPjrx67sbyNPqHy-31" style="edgeStyle=orthogonalEdgeStyle;rounded=0;orthogonalLoop=1;jettySize=auto;html=1;exitX=1;exitY=0.5;exitDx=0;exitDy=0;" edge="1" parent="1">
          <mxGeometry relative="1" as="geometry">
            <mxPoint x="579.7600000000002" y="1247.5" as="sourcePoint" />
            <mxPoint x="660.7600000000002" y="1247.5" as="targetPoint" />
          </mxGeometry>
        </mxCell>
        <mxCell id="i3o8uEPjrx67sbyNPqHy-32" value="No" style="text;html=1;align=center;verticalAlign=middle;whiteSpace=wrap;rounded=0;" vertex="1" parent="1">
          <mxGeometry x="580.1400000000003" y="1212.5" width="60" height="30" as="geometry" />
        </mxCell>
        <mxCell id="i3o8uEPjrx67sbyNPqHy-33" style="edgeStyle=orthogonalEdgeStyle;rounded=0;orthogonalLoop=1;jettySize=auto;html=1;entryX=1;entryY=0.5;entryDx=0;entryDy=0;" edge="1" parent="1" source="i3o8uEPjrx67sbyNPqHy-34" target="i3o8uEPjrx67sbyNPqHy-10">
          <mxGeometry relative="1" as="geometry">
            <Array as="points">
              <mxPoint x="830" y="1248" />
              <mxPoint x="830" y="320" />
            </Array>
          </mxGeometry>
        </mxCell>
        <mxCell id="i3o8uEPjrx67sbyNPqHy-34" value="Send &quot;Motor Error&quot; Alert AND Log Event" style="rounded=0;whiteSpace=wrap;html=1;" vertex="1" parent="1">
          <mxGeometry x="660.3800000000001" y="1217.5" width="120" height="60" as="geometry" />
        </mxCell>
        <mxCell id="i3o8uEPjrx67sbyNPqHy-35" style="edgeStyle=orthogonalEdgeStyle;rounded=0;orthogonalLoop=1;jettySize=auto;html=1;entryX=0.5;entryY=0;entryDx=0;entryDy=0;" edge="1" parent="1">
          <mxGeometry relative="1" as="geometry">
            <mxPoint x="489.4899999999998" y="1302.5" as="sourcePoint" />
            <mxPoint x="489.4899999999998" y="1352.5" as="targetPoint" />
          </mxGeometry>
        </mxCell>
        <mxCell id="i3o8uEPjrx67sbyNPqHy-36" value="Yes" style="text;html=1;align=center;verticalAlign=middle;whiteSpace=wrap;rounded=0;" vertex="1" parent="1">
          <mxGeometry x="489.9899999999998" y="1302.5" width="60" height="30" as="geometry" />
        </mxCell>
        <mxCell id="i3o8uEPjrx67sbyNPqHy-37" value="Wait 5 seconds and Recheck Bowl Weight" style="rounded=0;whiteSpace=wrap;html=1;" vertex="1" parent="1">
          <mxGeometry x="430" y="1352.5" width="120" height="60" as="geometry" />
        </mxCell>
        <mxCell id="i3o8uEPjrx67sbyNPqHy-38" value="Weight Increase OK?" style="rhombus;whiteSpace=wrap;html=1;" vertex="1" parent="1">
          <mxGeometry x="400.6300000000001" y="1465" width="178.75" height="110" as="geometry" />
        </mxCell>
        <mxCell id="i3o8uEPjrx67sbyNPqHy-39" style="edgeStyle=orthogonalEdgeStyle;rounded=0;orthogonalLoop=1;jettySize=auto;html=1;entryX=0.5;entryY=0;entryDx=0;entryDy=0;" edge="1" parent="1" target="i3o8uEPjrx67sbyNPqHy-38">
          <mxGeometry relative="1" as="geometry">
            <mxPoint x="489.3800000000001" y="1412.5" as="sourcePoint" />
            <mxPoint x="489.3800000000001" y="1462.5" as="targetPoint" />
          </mxGeometry>
        </mxCell>
        <mxCell id="i3o8uEPjrx67sbyNPqHy-40" style="edgeStyle=orthogonalEdgeStyle;rounded=0;orthogonalLoop=1;jettySize=auto;html=1;exitX=1;exitY=0.5;exitDx=0;exitDy=0;" edge="1" parent="1">
          <mxGeometry relative="1" as="geometry">
            <mxPoint x="579.7600000000002" y="1520" as="sourcePoint" />
            <mxPoint x="660.7600000000002" y="1520" as="targetPoint" />
          </mxGeometry>
        </mxCell>
        <mxCell id="i3o8uEPjrx67sbyNPqHy-41" value="No" style="text;html=1;align=center;verticalAlign=middle;whiteSpace=wrap;rounded=0;" vertex="1" parent="1">
          <mxGeometry x="580.1400000000003" y="1485" width="60" height="30" as="geometry" />
        </mxCell>
        <mxCell id="i3o8uEPjrx67sbyNPqHy-42" style="edgeStyle=orthogonalEdgeStyle;rounded=0;orthogonalLoop=1;jettySize=auto;html=1;entryX=1;entryY=0.5;entryDx=0;entryDy=0;" edge="1" parent="1" source="i3o8uEPjrx67sbyNPqHy-43" target="i3o8uEPjrx67sbyNPqHy-10">
          <mxGeometry relative="1" as="geometry">
            <Array as="points">
              <mxPoint x="870" y="1520" />
              <mxPoint x="870" y="320" />
            </Array>
          </mxGeometry>
        </mxCell>
        <mxCell id="i3o8uEPjrx67sbyNPqHy-43" value="Send &quot;No Food Dispensed&quot; Alert AND Log Event" style="rounded=0;whiteSpace=wrap;html=1;" vertex="1" parent="1">
          <mxGeometry x="660.3800000000001" y="1490" width="120" height="60" as="geometry" />
        </mxCell>
        <mxCell id="i3o8uEPjrx67sbyNPqHy-44" style="edgeStyle=orthogonalEdgeStyle;rounded=0;orthogonalLoop=1;jettySize=auto;html=1;entryX=0.5;entryY=0;entryDx=0;entryDy=0;" edge="1" parent="1">
          <mxGeometry relative="1" as="geometry">
            <mxPoint x="489.4899999999998" y="1575" as="sourcePoint" />
            <mxPoint x="489.4899999999998" y="1625" as="targetPoint" />
          </mxGeometry>
        </mxCell>
        <mxCell id="i3o8uEPjrx67sbyNPqHy-45" value="Yes" style="text;html=1;align=center;verticalAlign=middle;whiteSpace=wrap;rounded=0;" vertex="1" parent="1">
          <mxGeometry x="489.9899999999998" y="1575" width="60" height="30" as="geometry" />
        </mxCell>
        <mxCell id="i3o8uEPjrx67sbyNPqHy-46" style="edgeStyle=orthogonalEdgeStyle;rounded=0;orthogonalLoop=1;jettySize=auto;html=1;entryX=0.5;entryY=0;entryDx=0;entryDy=0;" edge="1" parent="1" source="i3o8uEPjrx67sbyNPqHy-47" target="i3o8uEPjrx67sbyNPqHy-48">
          <mxGeometry relative="1" as="geometry" />
        </mxCell>
        <mxCell id="i3o8uEPjrx67sbyNPqHy-47" value="Wait 10 minutes and Recheck Weight" style="rounded=0;whiteSpace=wrap;html=1;" vertex="1" parent="1">
          <mxGeometry x="430" y="1625" width="120" height="60" as="geometry" />
        </mxCell>
        <mxCell id="i3o8uEPjrx67sbyNPqHy-48" value="Weight &amp;lt;= Eating Threshold?" style="rhombus;whiteSpace=wrap;html=1;" vertex="1" parent="1">
          <mxGeometry x="400.25" y="1730" width="178.75" height="110" as="geometry" />
        </mxCell>
        <mxCell id="i3o8uEPjrx67sbyNPqHy-49" style="edgeStyle=orthogonalEdgeStyle;rounded=0;orthogonalLoop=1;jettySize=auto;html=1;exitX=1;exitY=0.5;exitDx=0;exitDy=0;" edge="1" parent="1">
          <mxGeometry relative="1" as="geometry">
            <mxPoint x="579.3800000000001" y="1785" as="sourcePoint" />
            <mxPoint x="660.3800000000001" y="1785" as="targetPoint" />
          </mxGeometry>
        </mxCell>
        <mxCell id="i3o8uEPjrx67sbyNPqHy-50" value="No" style="text;html=1;align=center;verticalAlign=middle;whiteSpace=wrap;rounded=0;" vertex="1" parent="1">
          <mxGeometry x="579.7600000000002" y="1750" width="60" height="30" as="geometry" />
        </mxCell>
        <mxCell id="i3o8uEPjrx67sbyNPqHy-51" style="edgeStyle=orthogonalEdgeStyle;rounded=0;orthogonalLoop=1;jettySize=auto;html=1;entryX=1;entryY=0.5;entryDx=0;entryDy=0;" edge="1" parent="1" source="i3o8uEPjrx67sbyNPqHy-52" target="i3o8uEPjrx67sbyNPqHy-10">
          <mxGeometry relative="1" as="geometry">
            <Array as="points">
              <mxPoint x="910" y="1785" />
              <mxPoint x="910" y="320" />
            </Array>
          </mxGeometry>
        </mxCell>
        <mxCell id="i3o8uEPjrx67sbyNPqHy-52" value="Send &quot;Not Eaten&quot; Alert AND Log Event" style="rounded=0;whiteSpace=wrap;html=1;" vertex="1" parent="1">
          <mxGeometry x="660" y="1755" width="120" height="60" as="geometry" />
        </mxCell>
        <mxCell id="i3o8uEPjrx67sbyNPqHy-53" style="edgeStyle=orthogonalEdgeStyle;rounded=0;orthogonalLoop=1;jettySize=auto;html=1;entryX=0.5;entryY=0;entryDx=0;entryDy=0;" edge="1" parent="1">
          <mxGeometry relative="1" as="geometry">
            <mxPoint x="489.1099999999997" y="1840" as="sourcePoint" />
            <mxPoint x="489.1099999999997" y="1890" as="targetPoint" />
          </mxGeometry>
        </mxCell>
        <mxCell id="i3o8uEPjrx67sbyNPqHy-54" value="Yes" style="text;html=1;align=center;verticalAlign=middle;whiteSpace=wrap;rounded=0;" vertex="1" parent="1">
          <mxGeometry x="489.6099999999997" y="1840" width="60" height="30" as="geometry" />
        </mxCell>
        <mxCell id="i3o8uEPjrx67sbyNPqHy-55" style="edgeStyle=orthogonalEdgeStyle;rounded=0;orthogonalLoop=1;jettySize=auto;html=1;entryX=0;entryY=0.5;entryDx=0;entryDy=0;" edge="1" parent="1" source="i3o8uEPjrx67sbyNPqHy-56" target="i3o8uEPjrx67sbyNPqHy-10">
          <mxGeometry relative="1" as="geometry">
            <Array as="points">
              <mxPoint x="320" y="1920" />
              <mxPoint x="320" y="320" />
            </Array>
          </mxGeometry>
        </mxCell>
        <mxCell id="i3o8uEPjrx67sbyNPqHy-56" value="Send &quot;Ate OK&quot; Alert AND Log Successful Feed Event" style="rounded=0;whiteSpace=wrap;html=1;" vertex="1" parent="1">
          <mxGeometry x="429.6199999999999" y="1890" width="120" height="60" as="geometry" />
        </mxCell>
      </root>
    </mxGraphModel>
  </diagram>
</mxfile>
